<svg width="60" height="60" viewBox="0 0 60 60" fill="none" xmlns="http://www.w3.org/2000/svg">
<path d="M3 16.5V9.75C3 7.95979 3.71116 6.2429 4.97703 4.97703C6.2429 3.71116 7.95979 3 9.75 3H16.5M3 43.5V50.25C3 52.0402 3.71116 53.7571 4.97703 55.023C6.2429 56.2888 7.95979 57 9.75 57H16.5M43.5 3H50.25C52.0402 3 53.7571 3.71116 55.023 4.97703C56.2888 6.2429 57 7.95979 57 9.75V16.5M43.5 57H50.25C52.0402 57 53.7571 56.2888 55.023 55.023C56.2888 53.7571 57 52.0402 57 50.25V43.5" stroke="white" stroke-width="5" stroke-linecap="round" stroke-linejoin="round"/>
<path d="M30 40.125C35.5919 40.125 40.125 35.5919 40.125 30C40.125 24.4081 35.5919 19.875 30 19.875C24.4081 19.875 19.875 24.4081 19.875 30C19.875 35.5919 24.4081 40.125 30 40.125Z" stroke="white" stroke-width="5" stroke-linecap="round" stroke-linejoin="round"/>
</svg>
