<svg width="33" height="30" viewBox="0 0 33 30" fill="none" xmlns="http://www.w3.org/2000/svg">
<path d="M7.61561 30C7.27898 30 6.95614 29.8683 6.7181 29.6339C6.48007 29.3995 6.34634 29.0815 6.34634 28.75V1.25C6.34644 1.0305 6.40523 0.814904 6.51679 0.624883C6.62835 0.434863 6.78875 0.277122 6.98186 0.167527C7.17497 0.057931 7.39397 0.000344975 7.61685 0.000559688C7.83973 0.0007744 8.05863 0.0587828 8.25152 0.16875L32.3676 13.9188C32.56 14.0286 32.7196 14.1863 32.8306 14.3761C32.9416 14.5659 33 14.781 33 15C33 15.219 32.9416 15.4341 32.8306 15.6239C32.7196 15.8137 32.56 15.9714 32.3676 16.0812L8.25152 29.8312C8.05836 29.9417 7.83898 29.9999 7.61561 30ZM8.88488 3.4175V26.5825L29.1932 15L8.88488 3.4175ZM0 0H2.53854V30H0V0Z" fill="white"/>
</svg>
