<svg width="68" height="82" viewBox="0 0 68 82" fill="none" xmlns="http://www.w3.org/2000/svg">
<g clip-path="url(#clip0_4_16)">
<path d="M40.311 45.8267C42.6421 48.1341 44.7007 50.1705 46.8442 52.2935C51.5755 48.3139 55.2887 43.6304 56.385 37.2081H68C67.6048 41.4608 66.5889 45.4847 64.49 49.0823C62.7842 52.0092 60.7947 54.8384 58.5463 57.3723C55.5276 60.7744 52.1359 63.8523 48.8381 67.1367C48.5322 66.8969 48.2419 66.7104 48.0008 66.4727C40.0922 58.6158 32.1412 50.7989 24.3063 42.871C20.3922 38.9092 19.2959 34.0947 21.1625 28.8449C23.0068 23.6573 26.8584 20.7038 32.3354 19.9443C37.7879 19.187 43.5106 22.1539 46.0359 26.9573C48.6684 31.9672 47.9204 38.1364 44.0978 42.2691C42.9413 43.5194 41.6105 44.612 40.311 45.8245V45.8267Z" fill="#003380"/>
<path d="M0.395208 27.9966C2.43599 14.1726 15.3818 -0.0843807 34.2222 6.57824e-06C51.1223 0.075511 65.5886 13.0667 67.5646 27.9766C63.9251 27.9766 60.308 28.0077 56.6909 27.9233C56.3783 27.9166 55.9473 27.1883 55.8 26.7241C52.808 17.2128 43.8433 10.675 33.818 10.7261C23.9446 10.7771 15.2389 17.1395 12.2469 26.5842C11.9031 27.6657 11.4677 28.0499 10.3289 28.0232C7.06012 27.9477 3.78907 27.9966 0.392975 27.9966H0.395208Z" fill="#003380"/>
<path d="M42.0973 73.5057C39.2661 76.3549 36.5376 79.0997 33.655 82C29.3881 77.7073 25.1168 73.4036 20.8365 69.1065C16.7728 65.027 12.6153 61.0386 8.65658 56.8637C3.76451 51.705 1.01593 45.4758 0.0267952 38.4717C-0.0290249 38.0786 0.0200968 37.67 0.0200968 37.1837H11.4074C11.787 38.4961 12.0951 39.8064 12.5439 41.0655C13.801 44.5942 15.9668 47.5167 18.6305 50.1416C26.164 57.5699 33.6461 65.0537 41.1461 72.5175C41.4743 72.844 41.7891 73.186 42.0973 73.5035V73.5057Z" fill="#003380"/>
</g>
<defs>
<clipPath id="clip0_4_16">
<rect width="68" height="82" fill="white"/>
</clipPath>
</defs>
</svg>
