<svg width="69" height="49" viewBox="0 0 69 49" fill="none" xmlns="http://www.w3.org/2000/svg">
<path d="M48.9218 35.5938C48.0442 35.5938 47.1862 35.854 46.4565 36.3416C45.7268 36.8292 45.158 37.5222 44.8221 38.3331C44.4863 39.1439 44.3984 40.0362 44.5696 40.897C44.7408 41.7578 45.1635 42.5484 45.7841 43.169C46.4047 43.7896 47.1953 44.2123 48.0561 44.3835C48.9169 44.5547 49.8092 44.4668 50.62 44.131C51.4309 43.7951 52.1239 43.2263 52.6115 42.4966C53.0991 41.7669 53.3593 40.9089 53.3593 40.0312C53.3593 38.8544 52.8918 37.7257 52.0596 36.8935C51.2274 36.0613 50.0987 35.5938 48.9218 35.5938ZM48.9218 42.25C48.483 42.25 48.054 42.1199 47.6892 41.8761C47.3243 41.6323 47.0399 41.2858 46.872 40.8803C46.7041 40.4749 46.6601 40.0288 46.7457 39.5984C46.8313 39.168 47.0427 38.7727 47.353 38.4624C47.6632 38.1521 48.0586 37.9407 48.489 37.8551C48.9194 37.7695 49.3655 37.8135 49.7709 37.9814C50.1763 38.1493 50.5229 38.4337 50.7667 38.7986C51.0105 39.1634 51.1406 39.5924 51.1406 40.0312C51.1406 40.6197 50.9068 41.184 50.4907 41.6001C50.0746 42.0162 49.5103 42.25 48.9218 42.25Z" fill="white"/>
<path d="M64.4531 0.0937523C63.7786 0.0863873 63.1114 0.234582 62.5034 0.526832C61.8954 0.819082 61.3629 1.24752 60.9474 1.77889C60.5318 2.31026 60.2442 2.93026 60.1071 3.59076C59.9699 4.25125 59.9868 4.93448 60.1565 5.58738L49.7517 31.1984C49.4765 31.1729 49.2025 31.1563 48.9219 31.1563C47.2576 31.1568 45.6275 31.6288 44.2203 32.5175L28.9531 26.4115V23.3906C28.9531 23.0964 28.8362 22.8142 28.6282 22.6062C28.4201 22.3981 28.138 22.2813 27.8437 22.2813H23.4062C23.112 22.2813 22.8298 22.3981 22.6218 22.6062C22.4137 22.8142 22.2969 23.0964 22.2969 23.3906C22.2986 26.7774 21.5463 30.1221 20.0948 33.182C18.901 32.4782 17.5164 32.1672 16.1363 32.2928C14.7563 32.4184 13.4505 32.9743 12.4035 33.882C11.7968 33.149 10.9705 32.6304 10.0466 32.4028C9.12277 32.1751 8.15019 32.2505 7.2724 32.6177C6.39462 32.985 5.65811 33.6246 5.17156 34.4423C4.68501 35.26 4.47417 36.2124 4.57016 37.1591C3.73946 37.515 3.00868 38.0691 2.44182 38.7729C1.87496 39.4768 1.4893 40.3089 1.31862 41.1963C1.14794 42.0838 1.19743 42.9996 1.46278 43.8635C1.72812 44.7274 2.20122 45.513 2.84064 46.1517L0.900345 46.7341C0.645141 46.8105 0.425948 46.9762 0.282822 47.2008C0.139697 47.4255 0.0821975 47.6942 0.120832 47.9578C0.159466 48.2213 0.291655 48.4622 0.493239 48.6364C0.694824 48.8105 0.952343 48.9063 1.21874 48.9063H6.76561C12.1549 48.9047 17.3575 46.9317 21.3927 43.3594H40.6958C41.1662 44.5292 41.8806 45.5852 42.7914 46.4571C43.7021 47.329 44.7883 47.9967 45.9775 48.4156C47.1667 48.8345 48.4316 48.995 49.6877 48.8864C50.9439 48.7778 52.1624 48.4026 53.2621 47.7859C54.3618 47.1691 55.3173 46.325 56.0649 45.3097C56.8126 44.2945 57.3351 43.1315 57.5978 41.8983C57.8604 40.6652 57.8571 39.3902 57.588 38.1584C57.3189 36.9266 56.7903 35.7664 56.0374 34.7551L66.7917 8.28427C67.6103 7.77672 68.2412 7.01603 68.5884 6.11757C68.9357 5.21912 68.9805 4.23192 68.7161 3.30569C68.4516 2.37947 67.8923 1.56476 67.123 0.985115C66.3537 0.405475 65.4163 0.0925333 64.4531 0.0937523V0.0937523ZM64.4531 2.3125C64.8919 2.3125 65.3209 2.44263 65.6858 2.68643C66.0507 2.93023 66.335 3.27675 66.503 3.68217C66.6709 4.0876 66.7148 4.53371 66.6292 4.96411C66.5436 5.3945 66.3323 5.78985 66.022 6.10015C65.7117 6.41044 65.3164 6.62176 64.886 6.70737C64.4556 6.79298 64.0095 6.74904 63.604 6.58111C63.1986 6.41318 62.8521 6.1288 62.6083 5.76392C62.3645 5.39905 62.2344 4.97008 62.2344 4.53125C62.2344 3.9428 62.4681 3.37846 62.8842 2.96236C63.3003 2.54626 63.8647 2.3125 64.4531 2.3125V2.3125ZM61.6098 7.9093C62.3212 8.51086 63.2054 8.87062 64.1347 8.93658L54.3489 33.0244C53.6216 32.4584 52.8106 32.0093 51.9449 31.6932L61.6098 7.9093ZM28.5094 31.1163C28.6628 30.3375 28.7739 29.5509 28.8422 28.76L42.2945 34.1405C41.7649 34.7317 41.3171 35.3914 40.9632 36.1018L28.5094 31.1163ZM36.5046 36.7031H26.5524C27.1167 35.6053 27.5876 34.4619 27.9602 33.2851L36.5046 36.7031ZM6.08667 45.1788L5.55195 45.3385C4.88274 45.0779 4.31608 44.6073 3.93694 43.9974C3.55781 43.3874 3.38666 42.671 3.44915 41.9556C3.51165 41.2401 3.80442 40.5642 4.28357 40.0293C4.76271 39.4943 5.40238 39.1291 6.10664 38.9884C6.26788 38.9559 6.41985 38.8879 6.55157 38.7894C6.68329 38.6908 6.79145 38.5643 6.86822 38.4188C6.94499 38.2733 6.98845 38.1126 6.99546 37.9483C7.00246 37.7839 6.97283 37.6201 6.90872 37.4686C6.81065 37.2255 6.762 36.9653 6.76561 36.7031C6.76561 36.1147 6.99937 35.5503 7.41547 35.1342C7.83156 34.7181 8.39591 34.4844 8.98436 34.4844C9.46576 34.4812 9.93485 34.6364 10.3194 34.9261C10.7039 35.2157 10.9824 35.6238 11.1121 36.0874C11.17 36.2898 11.2842 36.4716 11.4415 36.6115C11.5988 36.7513 11.7926 36.8436 12.0004 36.8775C12.2081 36.9113 12.4212 36.8853 12.6148 36.8026C12.8084 36.7199 12.9744 36.5838 13.0935 36.4103C13.7348 35.4746 14.7105 34.8205 15.8196 34.5827C16.9287 34.345 18.0868 34.5417 19.0553 35.1323C16.1402 39.9845 11.5134 43.5688 6.08667 45.1788V45.1788ZM8.79355 46.5854C13.2719 44.8257 17.1411 41.8002 19.9288 37.8784C22.7165 33.9565 24.3022 29.3079 24.4923 24.5H26.7344V26.7188C26.728 31.662 24.891 36.4277 21.578 40.0964C18.2649 43.7651 13.7105 46.0768 8.79355 46.5854V46.5854ZM23.5926 41.1406C24.1996 40.4368 24.7621 39.6958 25.2766 38.9219H40.1234C40.0213 39.6579 40.0213 40.4046 40.1234 41.1406H23.5926ZM48.9219 46.6875C47.6054 46.6875 46.3185 46.2971 45.2238 45.5657C44.1292 44.8343 43.2761 43.7948 42.7723 42.5785C42.2685 41.3622 42.1367 40.0239 42.3935 38.7327C42.6503 37.4415 43.2843 36.2555 44.2152 35.3246C45.1461 34.3937 46.3321 33.7597 47.6233 33.5029C48.9145 33.2461 50.2528 33.3779 51.4691 33.8817C52.6854 34.3855 53.7249 35.2386 54.4563 36.3332C55.1877 37.4279 55.5781 38.7148 55.5781 40.0313C55.5763 41.7961 54.8745 43.4881 53.6266 44.736C52.3787 45.9839 50.6867 46.6857 48.9219 46.6875Z" fill="white"/>
<path d="M14.5312 27.8281C15.1895 27.8281 15.833 27.6329 16.3803 27.2672C16.9276 26.9015 17.3541 26.3818 17.606 25.7736C17.8579 25.1655 17.9238 24.4963 17.7954 23.8507C17.667 23.2051 17.35 22.6121 16.8846 22.1467C16.4191 21.6812 15.8261 21.3642 15.1805 21.2358C14.5349 21.1074 13.8658 21.1733 13.2576 21.4252C12.6495 21.6771 12.1297 22.1037 11.764 22.651C11.3983 23.1983 11.2031 23.8418 11.2031 24.5C11.2031 25.3827 11.5538 26.2292 12.1779 26.8533C12.8021 27.4775 13.6486 27.8281 14.5312 27.8281V27.8281ZM14.5312 23.3906C14.7507 23.3906 14.9652 23.4557 15.1476 23.5776C15.33 23.6995 15.4722 23.8728 15.5562 24.0755C15.6401 24.2782 15.6621 24.5012 15.6193 24.7164C15.5765 24.9316 15.4708 25.1293 15.3157 25.2844C15.1605 25.4396 14.9629 25.5453 14.7477 25.5881C14.5325 25.6309 14.3094 25.6089 14.1067 25.5249C13.904 25.441 13.7307 25.2988 13.6088 25.1163C13.4869 24.9339 13.4219 24.7194 13.4219 24.5C13.4219 24.2058 13.5388 23.9236 13.7468 23.7156C13.9549 23.5075 14.237 23.3906 14.5312 23.3906V23.3906Z" fill="white"/>
<path d="M17.8594 13.4063C18.5176 13.4063 19.1611 13.2111 19.7084 12.8454C20.2557 12.4797 20.6823 11.9599 20.9342 11.3517C21.1861 10.7436 21.252 10.0744 21.1236 9.42884C20.9951 8.78325 20.6782 8.19023 20.2127 7.72479C19.7473 7.25934 19.1543 6.94237 18.5087 6.81395C17.8631 6.68553 17.1939 6.75144 16.5858 7.00334C15.9776 7.25524 15.4578 7.68181 15.0921 8.22912C14.7264 8.77643 14.5313 9.41989 14.5312 10.0781C14.5313 10.9608 14.8819 11.8073 15.506 12.4315C16.1302 13.0556 16.9767 13.4063 17.8594 13.4063ZM17.8594 8.96875C18.0788 8.96875 18.2933 9.03381 18.4757 9.15571C18.6581 9.27761 18.8003 9.45088 18.8843 9.65359C18.9683 9.8563 18.9902 10.0794 18.9474 10.2946C18.9046 10.5098 18.799 10.7074 18.6438 10.8626C18.4887 11.0177 18.291 11.1234 18.0758 11.1662C17.8606 11.209 17.6375 11.187 17.4348 11.1031C17.2321 11.0191 17.0589 10.8769 16.937 10.6945C16.8151 10.512 16.75 10.2975 16.75 10.0781C16.75 9.7839 16.8669 9.50173 17.0749 9.29368C17.283 9.08563 17.5652 8.96875 17.8594 8.96875Z" fill="white"/>
<path d="M3.4375 21.1719C4.09574 21.1719 4.7392 20.9767 5.28651 20.611C5.83382 20.2453 6.26039 19.7255 6.51229 19.1174C6.76418 18.5092 6.83009 17.8401 6.70168 17.1945C6.57326 16.5489 6.25629 15.9559 5.79084 15.4904C5.32539 15.025 4.73238 14.708 4.08679 14.5796C3.44119 14.4512 2.77202 14.5171 2.16388 14.769C1.55575 15.0209 1.03596 15.4474 0.670265 15.9947C0.304566 16.5421 0.109375 17.1855 0.109375 17.8438C0.109375 18.7264 0.460016 19.5729 1.08416 20.1971C1.7083 20.8212 2.55483 21.1719 3.4375 21.1719ZM3.4375 16.7344C3.65691 16.7344 3.8714 16.7994 4.05384 16.9213C4.23627 17.0432 4.37846 17.2165 4.46243 17.4192C4.5464 17.6219 4.56836 17.845 4.52556 18.0602C4.48275 18.2754 4.3771 18.4731 4.22195 18.6282C4.0668 18.7833 3.86913 18.889 3.65393 18.9318C3.43873 18.9746 3.21567 18.9526 3.01296 18.8687C2.81025 18.7847 2.63699 18.6425 2.51509 18.4601C2.39319 18.2777 2.32813 18.0632 2.32813 17.8438C2.32813 17.5495 2.44501 17.2674 2.65305 17.0593C2.8611 16.8513 3.14328 16.7344 3.4375 16.7344V16.7344Z" fill="white"/>
</svg>
